<svg xmlns="http://www.w3.org/2000/svg" height="95" width="234" version="1.1"><g fill="#317581"><path style="color-rendering:auto;color:#000000;isolation:auto;mix-blend-mode:multiply;shape-rendering:auto;solid-color:#000000;image-rendering:auto" fill-rule="evenodd" d="m47.502 0a47.502 47.502 0 0 0 -47.502 47.502 47.502 47.502 0 0 0 47.502 47.498 47.502 47.502 0 0 0 47.498 -47.498 47.502 47.502 0 0 0 -47.498 -47.502zm30.791 23.979-24.275 47.044-6.087-0.822 22.893-44.358zm-17.228 4.2956-21.086 40.851-5.4082-0.7299 0.02232-0.039-2.7517-6.6615-3.0561 5.9209-4.8001-0.6414-11.028-26.706 3.7836-0.94253 9.595 23.234 3.2584-6.3107-7.5391-18.245 4.0971-1.0205 5.9507 14.4 9.41-18.231 5.8075-1.4474-12.969 25.129 2.7532 6.6579 17.316-33.56z"/><path d="m98.985 41.599h2.1625q0.3375 0 0.5625 0.16264 0.2375 0.16263 0.31248 0.44999l3.5876 12.15q0.0875 0.3501 0.16249 0.7625 0.0875 0.4125 0.175 0.85 0.0875-0.45 0.17501-0.85 0.1-0.4125 0.22499-0.7625l4.0999-12.15q0.075-0.2374 0.31248-0.42501 0.23751-0.18744 0.5625-0.18744h0.75q0.3375 0 0.54999 0.17504 0.21249 0.16263 0.32499 0.43748l4.0875 12.15q0.23751 0.7 0.4 1.55 0.0625-0.4375 0.13752-0.825 0.0875-0.3875 0.175-0.725l3.6-12.15q0.0625-0.25015 0.30001-0.42501 0.25001-0.18744 0.575-0.18744h2.0125l-5.5998 17.937h-2.3125l-4.4376-13.425q-0.0625-0.2002-0.13748-0.4376-0.0625-0.2374-0.12501-0.4875-0.1125 0.5251-0.25001 0.9251l-4.4624 13.425h-2.325l-5.5998-17.937z"/><path d="m130.11 46.666q1.15 0 2.125 0.3875 0.975 0.375 1.6875 1.1 0.71248 0.725 1.1125 1.7875 0.4 1.0499 0.4 2.4124 0 0.55-0.12501 0.7375-0.1125 0.1875-0.43749 0.1875h-8.3749q0.0375 1.1625 0.32499 2.0249 0.30001 0.8626 0.8 1.4376 0.5125 0.5625 1.225 0.85 0.71248 0.2749 1.5875 0.2749 0.82498 0 1.4125-0.1874 0.59999-0.1875 1.025-0.4125 0.43749-0.225 0.7375-0.4125 0.30001-0.1874 0.52501-0.1874 0.30001 0 0.43749 0.2249l0.67499 0.8626q-0.43749 0.525-1.0125 0.8999-0.575 0.3625-1.2375 0.6125-0.66249 0.2374-1.375 0.3501-0.70001 0.1123-1.3875 0.1123-1.3125 0-2.4375-0.4375-1.1125-0.4499-1.925-1.2999-0.81251-0.8626-1.275-2.1251-0.44999-1.2749-0.44999-2.9249 0-1.325 0.4125-2.4625 0.41251-1.15 1.175-1.9875 0.77498-0.85 1.875-1.3375 1.1125-0.4875 2.5-0.4875zm0.0375 1.7375q-1.5625 0-2.4625 0.9125-0.88748 0.8999-1.1125 2.4999h6.7375q0-0.75-0.21249-1.375-0.21614-0.6236-0.62716-1.0736-0.4-0.45-0.98747-0.7-0.58751-0.2625-1.3375-0.2625z"/><path d="m138.1 59.564v-18.437h2.375v7.5372q0.7875-0.9125 1.7875-1.45 1.0125-0.5375 2.3-0.5375 1.1125 0 2 0.4375 0.89999 0.425 1.525 1.225 0.62496 0.8 0.94999 1.9625 0.33767 1.15 0.33767 2.5875 0 1.5375-0.38749 2.8-0.37502 1.2624-1.0875 2.1624-0.70001 0.9-1.7125 1.4-0.99999 0.4875-2.2625 0.4875-1.25 0-2.1-0.4625-0.83749-0.475-1.475-1.3l-0.11267 1.0875q-0.11268 0.5-0.59998 0.5h-1.5375zm5.6749-11q-1.0625 0-1.85 0.4875-0.77499 0.475-1.45 1.3625v6.0625q0.59998 0.7875 1.3125 1.1125 0.71248 0.3125 1.55 0.3125 1.7375 0 2.6625-1.225 0.92497-1.2249 0.92497-3.6999 0-2.275-0.82498-3.3374-0.81251-1.075-2.325-1.075z"/><path d="m152.13 59.564v-12.687h1.425q0.49999 0 0.625 0.475l0.16263 1.2375q0.69998-0.8375 1.5625-1.375 0.86251-0.5375 2.0125-0.5375 1.275 0 2.0625 0.7 0.78749 0.6875 1.1375 1.875 0.27496-0.675 0.71252-1.1625 0.43749-0.4875 0.97497-0.8 0.53751-0.3125 1.1375-0.4625 0.61249-0.1499 1.2375-0.1499 2.0375 0 3.15 1.25 1.1125 1.2375 1.1125 3.55v8.0875h-2.375v-8.0875q0-1.4375-0.63747-2.175-0.625-0.7375-1.825-0.7375-0.53748 0-1.025 0.1875-0.47497 0.1874-0.83748 0.5499-0.36248 0.3626-0.57497 0.9125-0.2126 0.55-0.2126 1.2626v8.0875h-2.375v-8.0875q0-1.475-0.60002-2.1875-0.58747-0.7251-1.7375-0.7251-0.78749 0-1.4875 0.4251-0.6875 0.4125-1.25 1.1499v9.4251h-2.375z"/><path d="m180.83 59.564q-0.35007 0-0.53751-0.1127-0.18744-0.1123-0.30012-0.4375l-0.2622-1.1374q-0.48748 0.45-0.96246 0.8125-0.47501 0.3501-1 0.5875-0.5125 0.2374-1.1 0.3625-0.58751 0.1251-1.3125 0.1251-0.74997 0-1.4-0.1998-0.64997-0.2126-1.1375-0.6375-0.47498-0.425-0.76248-1.05-0.27496-0.6375-0.27496-1.5 0-0.75 0.4-1.4375 0.41247-0.6875 1.325-1.225 0.92501-0.55 2.4-0.9 1.4875-0.35 3.6499-0.4v-0.95q0-1.4375-0.625-2.1624-0.61249-0.7375-1.8125-0.7375-0.81251 0-1.3625 0.2126-0.53748 0.1998-0.93748 0.4499-0.38749 0.2374-0.6875 0.4375-0.30011 0.1999-0.59998 0.1999-0.25016 0-0.42502-0.1251-0.16263-0.1375-0.28736-0.3125l-0.42498-0.775q1.0625-1 2.2875-1.5 1.2375-0.5 2.725-0.5 1.075 0 1.9125 0.3501 0.83749 0.35 1.4 0.9875 0.575 0.625 0.8625 1.5125 0.30012 0.8874 0.30012 1.9624v8.1h-1.05zm-4.7625-1.4625q0.56249 0 1.0375-0.1127 0.48748-0.1123 0.89999-0.3249 0.42502-0.2126 0.8-0.5125 0.37499-0.3125 0.75001-0.7v-2.5499q-1.5 0.05-2.55 0.2374t-1.7125 0.4875q-0.64998 0.3001-0.94999 0.725-0.30012 0.4124-0.30012 0.9125 0 0.4874 0.14988 0.8375 0.16264 0.35 0.43749 0.5749 0.27496 0.2126 0.63751 0.3249 0.37498 0.1 0.8 0.1z"/><path d="m185.16 63.816v-16.95h1.425q0.49999 0 0.625 0.475l0.19984 1.45q0.8-0.9625 1.8375-1.55 1.05-0.6 2.4-0.6 1.0875 0 1.9625 0.425 0.88749 0.4125 1.5125 1.2375 0.63748 0.825 0.97497 2.0375 0.33732 1.1999 0.33732 2.7749 0 1.4125-0.37498 2.625-0.37499 1.2-1.0875 2.0875-0.71248 0.8875-1.725 1.4-1.0125 0.5-2.2875 0.5-1.1625 0-1.975-0.375-0.81251-0.375-1.45-1.075v5.5374h-2.375zm5.7125-15.262q-1.075 0-1.875 0.4875-0.78749 0.475-1.4625 1.3625v6.0626q0.59999 0.7875 1.3 1.1125 0.71248 0.3125 1.5874 0.3125 1.7125 0 2.6375-1.225t0.925-3.55q0-1.2125-0.21259-2.075-0.2126-0.8625-0.61249-1.4125-0.4-0.5625-0.97501-0.8124-0.575-0.2626-1.3125-0.2626z"/><path d="m199.22 63.816v-16.95h1.425q0.5 0 0.625 0.475l0.19984 1.45q0.8-0.9625 1.8375-1.55 1.05-0.6 2.4-0.6 1.0875 0 1.9625 0.425 0.88748 0.4125 1.5125 1.2375 0.63747 0.825 0.97497 2.0375 0.33732 1.1999 0.33732 2.7749 0 1.4125-0.37499 2.625-0.37498 1.2-1.0875 2.0875-0.71248 0.8875-1.725 1.4-1.0125 0.5-2.2875 0.5-1.1625 0-1.975-0.375-0.81251-0.375-1.45-1.075v5.5374h-2.375zm5.7125-15.262q-1.075 0-1.875 0.4875-0.78749 0.475-1.4625 1.3625v6.0626q0.59998 0.7875 1.3 1.1125 0.71248 0.3125 1.5875 0.3125 1.7125 0 2.6375-1.225 0.92501-1.225 0.92501-3.55 0-1.2125-0.2126-2.075-0.21259-0.8625-0.61249-1.4125-0.4-0.5625-0.975-0.8124-0.575-0.2626-1.3125-0.2626z"/><path d="m218.54 46.666q1.15 0 2.125 0.3875 0.975 0.375 1.6875 1.1 0.71248 0.725 1.1125 1.7875 0.4 1.0499 0.4 2.4124 0 0.55-0.12508 0.7375-0.11267 0.1875-0.43749 0.1875h-8.3749q0.0376 1.1625 0.32492 2.0249 0.30011 0.8626 0.8 1.4376 0.5125 0.5625 1.225 0.85 0.71251 0.2749 1.5875 0.2749 0.82498 0 1.4125-0.1874 0.59999-0.1875 1.025-0.4125 0.43749-0.225 0.7375-0.4125 0.30011-0.1874 0.52497-0.1874 0.30012 0 0.43749 0.2249l0.67499 0.8626q-0.43749 0.525-1.0125 0.8999-0.57497 0.3625-1.2375 0.6125-0.66248 0.2374-1.375 0.3501-0.7 0.1123-1.3875 0.1123-1.3125 0-2.4375-0.4375-1.1125-0.4499-1.925-1.2999-0.81248-0.8626-1.275-2.1251-0.45-1.2749-0.45-2.9249 0-1.325 0.41251-2.4625 0.41248-1.15 1.175-1.9875 0.77498-0.85 1.875-1.3375 1.1125-0.4875 2.5-0.4875zm0.0376 1.7375q-1.5625 0-2.4625 0.9125-0.88749 0.8999-1.1125 2.4999h6.7375q0-0.75-0.21259-1.375-0.2126-0.625-0.625-1.0749-0.4-0.45-0.98751-0.7001-0.58748-0.2625-1.3375-0.2625z"/><path d="m226.54 59.564v-12.687h1.3625q0.38749 0 0.525 0.1375 0.14989 0.1375 0.19985 0.5l0.14988 1.8499q0.60001-1.2624 1.475-1.9874 0.87501-0.725 2.1-0.725 0.41248 0 0.77499 0.087 0.37498 0.087 0.64998 0.2749l-0.16264 1.775q-0.0751 0.3373-0.4 0.3373-0.17504 0-0.52497-0.075-0.33732-0.075-0.75001-0.075-0.58747 0-1.05 0.175-0.45 0.1751-0.81251 0.5125-0.36248 0.3377-0.64998 0.825-0.27496 0.4875-0.5125 1.1125v7.9624h-2.375z"/></g></svg>
