<?xml version="1.0" encoding="UTF-8" standalone="no"?>
<svg
   xmlns:dc="http://purl.org/dc/elements/1.1/"
   xmlns:cc="http://creativecommons.org/ns#"
   xmlns:rdf="http://www.w3.org/1999/02/22-rdf-syntax-ns#"
   xmlns:svg="http://www.w3.org/2000/svg"
   xmlns="http://www.w3.org/2000/svg"
   xmlns:xlink="http://www.w3.org/1999/xlink"
   id="webmapper"
   version="1.1"
   viewBox="0 0 12.7 12.7"
   height="48"
   width="48">
  <g
     transform="translate(-59.657766,-143.00354)"
     id="logo">
    <path
       id="c"
       d="m 65.994487,143.2301 c -3.979622,-0.1511 -7.178216,4.19667 -5.862633,7.95025 1.032456,3.84399 6.129347,5.6217 9.327686,3.25132 3.368524,-2.12238 3.559548,-7.51657 0.349592,-9.87191 -1.073678,-0.85652 -2.441372,-1.33308 -3.814645,-1.32966 z m 3.978321,3.09784 c -1.04548,2.02592 -2.09096,4.05183 -3.13644,6.07775 -0.262169,-0.0355 -0.524338,-0.0709 -0.786507,-0.10643 0.98595,-1.91029 1.971901,-3.82059 2.957851,-5.73088 0.321699,-0.0802 0.643397,-0.16029 0.965096,-0.24044 z m -2.226,0.55495 c -0.907963,1.75911 -1.815925,3.51823 -2.723888,5.27734 -0.228841,-0.0345 -0.481494,-0.0574 -0.695872,-0.099 -0.118499,-0.28678 -0.236998,-0.57356 -0.355497,-0.86034 -0.131604,0.25498 -0.263208,0.50995 -0.394812,0.76493 -0.206715,-0.0277 -0.413429,-0.0555 -0.620144,-0.0832 -0.474877,-1.14992 -0.949753,-2.29983 -1.42463,-3.44975 0.17721,0.009 0.490735,-0.25224 0.541788,0.007 0.395521,0.95763 0.791041,1.91526 1.186562,2.87289 0.140313,-0.27176 0.280627,-0.54351 0.42094,-0.81527 -0.324655,-0.78571 -0.649309,-1.57141 -0.973964,-2.35712 0.179679,0.008 0.487484,-0.23793 0.56906,-0.0356 0.243,0.58814 0.485999,1.17629 0.728999,1.76443 0.4052,-0.78515 0.810399,-1.5703 1.215599,-2.35545 0.250103,-0.0623 0.500207,-0.12465 0.75031,-0.18698 -0.558457,1.08208 -1.116915,2.16415 -1.675372,3.24623 0.118499,0.28678 0.236998,0.57356 0.355497,0.86034 0.745756,-1.44525 1.491511,-2.89049 2.237267,-4.33574 0.286052,-0.0714 0.572105,-0.14285 0.858157,-0.21428 z"
       style="fill:#317581;fill-opacity:1;fill-rule:evenodd;stroke:none;" />
    <path
       id="f"
       d="m 61.531941,148.43263 c 2.813622,-0.70156 5.627245,-1.40313 8.440867,-2.10469 -1.04548,2.02592 -2.09096,4.05183 -3.13644,6.07775 -1.293266,-0.17444 -2.586531,-0.34887 -3.879797,-0.52331 -0.474877,-1.14992 -0.949753,-2.29983 -1.42463,-3.44975 z"
       style="opacity:1;fill:none;fill-opacity:1;stroke:none;" />
  </g>
</svg>
